<svg xmlns="http://www.w3.org/2000/svg" viewBox="0 0 30 20.74"><path d="M16.71,7.63h1.53a1.49,1.49,0,1,0,0-1.12H16V7.66Zm2.93-1.48a1,1,0,1,1-1,1A1,1,0,0,1,19.64,6.15Zm0,1.55a.58.58,0,1,0-.58-.58A.58.58,0,0,0,19.64,7.7Zm5.58,3.63a.58.58,0,1,0-.58-.58A.58.58,0,0,0,25.22,11.33Zm-6-.68c-.58.53-1.14,1.07-1.68,1.63a1.56,1.56,0,0,1-1.18.5H16v1.14s.8,0,1.07-.06a1.84,1.84,0,0,0,1-.51l1.8-1.74a1.15,1.15,0,0,1,.82-.34c1,0,2.07,0,3.1,0a1.49,1.49,0,1,0,.06-1.14H20.69A2.11,2.11,0,0,0,19.25,10.65Zm6-.87a1,1,0,1,1-1,1A1,1,0,0,1,25.22,9.78Zm4.29,8.55a1.51,1.51,0,0,0-1.39,1h-.91a1.9,1.9,0,0,0-1.36.52c-.38.35-.73.72-1.11,1.08a.67.67,0,0,1-.33.22,1.55,1.55,0,0,1-1.72-.39,8.51,8.51,0,0,0-.91-.89,1.93,1.93,0,0,0-1.35-.51H16v1.15h4.56a.83.83,0,0,1,.48.21c.36.33.7.7,1.06,1a1.82,1.82,0,0,0,1.07.57,9.33,9.33,0,0,0,1.06,0,1.73,1.73,0,0,0,1.15-.45c.36-.32.7-.66,1-1a1.2,1.2,0,0,1,1-.43c.24,0,.48,0,.72,0a1.51,1.51,0,0,0,1.37.89,1.5,1.5,0,0,0,0-3Zm0,2.47a1,1,0,1,1,1-1A1,1,0,0,1,29.51,20.8Zm-2,2.59a1.5,1.5,0,0,0-1.43,1.06H22.48a1.13,1.13,0,0,1-.83-.34c-.23-.23-.47-.44-.68-.68a2.61,2.61,0,0,0-2.18-.91c-1.13,0-2.79,0-2.79,0V23.7l3.08,0a1.13,1.13,0,0,1,.81.32l.92.9a2.27,2.27,0,0,0,1.7.71c.35,0,.7,0,1,0h2.69a1.47,1.47,0,0,0,1.31.78,1.49,1.49,0,1,0,0-3Zm0,2.46a1,1,0,1,1,1-1A1,1,0,0,1,27.56,25.85Zm2-6.61a.59.59,0,1,0,.58.58A.58.58,0,0,0,29.51,19.24Zm-6.1-2.07a.59.59,0,1,0-.59-.59A.58.58,0,0,0,23.41,17.17Zm0,.9A1.49,1.49,0,1,0,22,16H16v1.17h6A1.5,1.5,0,0,0,23.41,18.07Zm0-2.46a1,1,0,1,1-1,1A1,1,0,0,1,23.41,15.61Zm4.15,8.69a.58.58,0,1,0,.58.58A.58.58,0,0,0,27.56,24.3Z" transform="translate(-1 -5.63)" fill="#066e91"/><path d="M15.18,12.77h-1.1a51.56,51.56,0,0,1-8.37-.54L7.65,8.74a3.67,3.67,0,0,1,1.56-1c.21,0,.45-.1.72-.14,1.05,0,5.25,0,5.25,0V6.51s-4.51,0-5,0a4.79,4.79,0,0,0-1.83.37A5,5,0,0,0,6.14,8.72c-.42.65-.8,1.33-1.19,2-.09.14-.17.29-.25.43a1.73,1.73,0,0,0-1.45-.69c-1.09,0-2.25.76-2.25,1.48s1.16,1.11,2.25,1.11h.27c-.63.56-1.26,1.08-1.26,1.08A2.93,2.93,0,0,0,1.45,16v4.72a1.41,1.41,0,0,0,.69,1.11v2.49a.78.78,0,0,0,.78.78H6.37a.78.78,0,0,0,.78-.78v-1c.34,0,.75.09,1.22.13s.81.09,1.55.13c2.32.16,3.78.18,5.27.16ZM5.43,17.22c-1.35-.12-2-.67-1.88-1.66.06-.7.76-1.1,2.11-1,2,.17,2.86.71,2.8,1.41C8.37,17,6.79,17.34,5.43,17.22Z" transform="translate(-1 -5.63)" fill="#26323e"/></svg>