<svg xmlns="http://www.w3.org/2000/svg" viewBox="0 0 16 11.1"><path d="M9.9,3.6a.27.27,0,0,0,.3-.3.3.3,0,0,0-.6,0A.45.45,0,0,0,9.9,3.6Zm3,1.9a.27.27,0,0,0,.3-.3.3.3,0,0,0-.6,0A.32.32,0,0,0,12.9,5.5ZM9.7,5.2a6.47,6.47,0,0,0-.9.8.6.6,0,0,1-.6.3H8v.6h.6a.86.86,0,0,0,.6-.3,9,9,0,0,1,1-.9.76.76,0,0,1,.4-.2h1.6a.75.75,0,0,0,.7.5.86.86,0,0,0,.8-.8.86.86,0,0,0-.8-.8.84.84,0,0,0-.7.4H10.5C10.2,4.9,9.9,4.9,9.7,5.2Zm3.2-.5a.47.47,0,0,1,.5.5.5.5,0,1,1-1,0A.47.47,0,0,1,12.9,4.7ZM8.4,3.5h.8A.79.79,0,0,0,10,4a.86.86,0,0,0,.8-.8.86.86,0,0,0-.8-.8.75.75,0,0,0-.7.5H8.1v.6Zm1.5-.7a.47.47,0,0,1,.5.5.47.47,0,0,1-.5.5.54.54,0,0,1-.5-.5A.54.54,0,0,1,9.9,2.8Zm2,6.3a.86.86,0,0,0,.8-.8.86.86,0,0,0-.8-.8.75.75,0,0,0-.7.5H8v.6h3.2A.75.75,0,0,0,11.9,9.1Zm0-1.3a.5.5,0,1,1-.5.5A.54.54,0,0,1,11.9,7.8Zm0,.8a.3.3,0,1,0-.3-.3A.32.32,0,0,0,11.9,8.6Zm3.3.6a.75.75,0,0,0-.7.5H14a.91.91,0,0,0-.7.3l-.6.6c-.1.1-.1.1-.2.1a.76.76,0,0,1-.9-.2c-.1-.2-.3-.3-.5-.5a.91.91,0,0,0-.7-.3H8v.6h2.4a.35.35,0,0,1,.2.1l.6.6a.86.86,0,0,0,.6.3h.6a1.42,1.42,0,0,0,.6-.2,2.65,2.65,0,0,1,.6-.5c.1-.2.3-.2.5-.2h.4a.75.75,0,0,0,.7.5.86.86,0,0,0,.8-.8A1,1,0,0,0,15.2,9.2Zm0,1.4a.5.5,0,1,1,.5-.5A.47.47,0,0,1,15.2,10.6Zm0-.9a.3.3,0,1,0,.3.3A.27.27,0,0,0,15.2,9.7Zm-1,2.7a.3.3,0,1,0,.3.3A.45.45,0,0,0,14.2,12.4Zm0-.5a.76.76,0,0,0-.8.6H11.5a.52.52,0,0,1-.4-.2l-.4-.4a1.35,1.35,0,0,0-1.2-.5H8V12H9.6a.52.52,0,0,1,.4.2l.5.5a1.49,1.49,0,0,0,.9.4h2a.84.84,0,0,0,.7.4.86.86,0,0,0,.8-.8A.77.77,0,0,0,14.2,11.9Zm0,1.3a.5.5,0,1,1,.5-.5A.54.54,0,0,1,14.2,13.2Z" transform="translate(0 -2.4)"/><path d="M7.6,6.3H7A39.62,39.62,0,0,1,2.5,6l1-1.9a2.18,2.18,0,0,1,.8-.5.76.76,0,0,0,.4-.1H7.5V2.9H4.8c-.3.1-.6.1-.9.2a2.94,2.94,0,0,0-1.2,1c-.2.4-.4.7-.6,1.1,0,.1-.1.1-.1.2a1,1,0,0,0-.8-.3c-.6,0-1.2.3-1.2.7s.6.6,1.2.6h.1L.7,7A1.39,1.39,0,0,0,.2,8v2.5a.72.72,0,0,0,.4.6v1.3a.43.43,0,0,0,.4.4H2.8a.43.43,0,0,0,.4-.4v-.5c.2,0,.4.1.7.1h.9c1.2.1,2,.1,2.8.1ZM2.4,8.6c-.7-.1-1-.4-1-.9s.4-.6,1.1-.5c1,.1,1.5.4,1.5.8S3.1,8.7,2.4,8.6Z" transform="translate(0 -2.4)"/></svg>