<?xml version="1.0" encoding="utf-8"?>
<!-- Generator: Adobe Illustrator 26.0.1, SVG Export Plug-In . SVG Version: 6.00 Build 0)  -->
<svg version="1.1" id="Слой_1" xmlns="http://www.w3.org/2000/svg" xmlns:xlink="http://www.w3.org/1999/xlink" x="0px" y="0px"
	 viewBox="0 0 16 16" style="enable-background:new 0 0 16 16;" xml:space="preserve">
<style type="text/css">
	.st0{fill:#066E91;}
	.st1{fill:#26323E;}
</style>
<g id="Circuit">
	<g>
		<path class="st0" d="M9.94,3.57c0.17,0,0.31-0.14,0.31-0.31c0-0.17-0.14-0.31-0.31-0.31S9.63,3.09,9.63,3.26
			C9.63,3.44,9.77,3.57,9.94,3.57z M12.92,5.51c0.17,0,0.31-0.14,0.31-0.31s-0.14-0.31-0.31-0.31c-0.17,0-0.31,0.14-0.31,0.31
			S12.75,5.51,12.92,5.51z M9.73,5.15c-0.3,0.28-0.6,0.57-0.9,0.87C8.66,6.19,8.47,6.28,8.21,6.28c-0.07,0-0.21,0-0.21,0l0,0.61
			c0,0,0.43-0.01,0.57-0.03c0.21-0.03,0.39-0.13,0.55-0.28c0.32-0.31,0.64-0.62,0.96-0.93c0.12-0.12,0.27-0.18,0.44-0.18
			c0.55,0,1.1,0,1.65,0c0.11,0.31,0.4,0.53,0.75,0.53c0.44,0,0.8-0.36,0.8-0.8c0-0.44-0.36-0.8-0.8-0.8c-0.32,0-0.59,0.19-0.72,0.45
			c-0.14,0-0.28,0-0.41,0c-0.43,0-0.86,0-1.29,0C10.21,4.86,9.94,4.95,9.73,5.15z M12.92,4.68c0.29,0,0.52,0.23,0.52,0.52
			c0,0.29-0.23,0.52-0.52,0.52c-0.29,0-0.52-0.23-0.52-0.52C12.4,4.91,12.63,4.68,12.92,4.68z M8.38,3.54c0.27,0,0.55,0,0.82,0
			c0.11,0.3,0.4,0.52,0.75,0.52c0.44,0,0.8-0.36,0.8-0.8s-0.36-0.8-0.8-0.8c-0.32,0-0.6,0.19-0.73,0.47c-0.4,0-1.22,0-1.22,0l0,0.61
			C8,3.55,8.26,3.54,8.38,3.54z M9.94,2.75c0.29,0,0.52,0.23,0.52,0.52c0,0.29-0.23,0.52-0.52,0.52S9.42,3.55,9.42,3.26
			C9.42,2.98,9.66,2.75,9.94,2.75z M11.95,9.11c0.44,0,0.8-0.36,0.8-0.8c0-0.44-0.36-0.8-0.8-0.8c-0.33,0-0.61,0.2-0.73,0.49
			c-0.06,0-0.12,0-0.19,0C8.94,8,8,8,8,8l0,0.62c0,0,2.15,0,3.22,0C11.34,8.91,11.62,9.11,11.95,9.11z M11.95,7.79
			c0.29,0,0.52,0.23,0.52,0.52c0,0.29-0.23,0.52-0.52,0.52s-0.52-0.23-0.52-0.52C11.43,8.02,11.66,7.79,11.95,7.79z M11.95,8.62
			c0.17,0,0.31-0.14,0.31-0.31c0-0.17-0.14-0.31-0.31-0.31s-0.31,0.14-0.31,0.31C11.64,8.48,11.78,8.62,11.95,8.62z M15.2,9.24
			c-0.34,0-0.62,0.21-0.74,0.5c-0.16,0-0.32,0-0.49,0c-0.28,0-0.52,0.09-0.72,0.28c-0.2,0.19-0.39,0.39-0.59,0.58
			c-0.05,0.05-0.11,0.11-0.18,0.12c-0.34,0.08-0.66,0.1-0.92-0.21c-0.15-0.17-0.32-0.32-0.48-0.48c-0.2-0.19-0.45-0.27-0.72-0.27
			c-0.65,0-2.36,0-2.36,0l0,0.61c0,0,1.75,0,2.43,0.01c0.09,0,0.19,0.05,0.25,0.11c0.2,0.18,0.37,0.37,0.56,0.56
			c0.16,0.16,0.35,0.27,0.57,0.3c0.19,0.02,0.38,0.01,0.56,0.01c0.24,0,0.44-0.09,0.61-0.24c0.19-0.17,0.37-0.35,0.55-0.54
			c0.15-0.16,0.32-0.25,0.54-0.23c0.13,0.01,0.26,0.01,0.39,0c0.12,0.28,0.4,0.47,0.73,0.47c0.44,0,0.8-0.36,0.8-0.8
			S15.64,9.24,15.2,9.24z M15.2,10.56c-0.29,0-0.52-0.23-0.52-0.52s0.23-0.52,0.52-0.52s0.52,0.23,0.52,0.52S15.49,10.56,15.2,10.56
			z M15.2,9.73c-0.17,0-0.31,0.14-0.31,0.31s0.14,0.31,0.31,0.31s0.31-0.14,0.31-0.31S15.38,9.73,15.2,9.73z M14.17,12.43
			c-0.17,0-0.31,0.14-0.31,0.31c0,0.17,0.14,0.31,0.31,0.31s0.31-0.14,0.31-0.31C14.48,12.56,14.34,12.43,14.17,12.43z M14.17,11.94
			c-0.36,0-0.66,0.24-0.76,0.57c-0.63,0-1.34,0-1.95,0c-0.17,0-0.32-0.06-0.45-0.18c-0.12-0.12-0.25-0.24-0.36-0.36
			c-0.31-0.35-0.69-0.5-1.16-0.49c-0.6-0.01-1.48,0-1.48,0l0,0.63c0,0,1.1-0.02,1.65-0.02c0.17,0,0.31,0.06,0.43,0.17
			c0.16,0.16,0.33,0.32,0.49,0.48c0.25,0.25,0.55,0.39,0.91,0.38c0.19,0,0.37,0,0.56,0c0.35,0,0.69,0,1.04,0c0.13,0,0.26,0,0.39,0
			c0.13,0.25,0.4,0.42,0.7,0.42c0.44,0,0.8-0.36,0.8-0.8S14.61,11.94,14.17,11.94z M14.17,13.25c-0.29,0-0.52-0.23-0.52-0.52
			s0.23-0.52,0.52-0.52s0.52,0.23,0.52,0.52S14.45,13.25,14.17,13.25z"/>
	</g>
</g>
<g id="Car_7_">
	<g>
		<path class="st1" d="M7.56,6.28c-0.39,0-0.79-0.01-0.59-0.01C3.69,6.23,2.51,5.98,2.51,5.98l1.04-1.86
			c0.24-0.24,0.52-0.42,0.83-0.51c0.11-0.03,0.24-0.05,0.38-0.07c0.56,0,2.8-0.01,2.8-0.01l0-0.59c0,0-2.4-0.01-2.68,0
			C4.54,2.95,4.22,3,3.9,3.14C3.42,3.35,3.03,3.68,2.74,4.12C2.52,4.47,2.32,4.83,2.11,5.19C2.06,5.26,2.02,5.34,1.97,5.41
			C1.82,5.2,1.56,5.05,1.2,5.05C0.62,5.05,0,5.45,0,5.83c0,0.38,0.62,0.59,1.2,0.59c0.05,0,0.1,0,0.15-0.01C1.01,6.72,0.67,7,0.67,7
			C0.43,7.22,0.24,7.66,0.24,7.99v2.51c0,0.22,0.13,0.42,0.37,0.59v1.33c0,0.23,0.19,0.42,0.42,0.42h1.84
			c0.23,0,0.42-0.19,0.42-0.42v-0.54c0.18,0.02,0.4,0.05,0.65,0.07C4.1,11.98,4.36,12,4.76,12.02c1.24,0.09,2.01,0.1,2.81,0.09
			L7.56,6.28z M2.36,8.65C1.64,8.59,1.31,8.29,1.36,7.76c0.03-0.37,0.41-0.59,1.13-0.52c1.04,0.09,1.52,0.38,1.49,0.75
			C3.93,8.52,3.09,8.71,2.36,8.65z"/>
	</g>
</g>
</svg>
